<mxfile host="app.diagrams.net" agent="Mozilla/5.0 (Macintosh; Intel Mac OS X 10_15_7) AppleWebKit/537.36 (KHTML, like Gecko) Chrome/127.0.0.0 Safari/537.36" version="24.7.6">
  <diagram name="Page-1" id="c7558073-3199-34d8-9f00-42111426c3f3">
    <mxGraphModel dx="2482" dy="2217" grid="1" gridSize="10" guides="1" tooltips="1" connect="1" arrows="1" fold="1" page="1" pageScale="1" pageWidth="826" pageHeight="1169" background="none" math="0" shadow="0">
      <root>
        <mxCell id="0" />
        <mxCell id="1" parent="0" />
        <mxCell id="NWvB8G0F85589qx8JD1G-92" value="" style="rounded=1;whiteSpace=wrap;html=1;fillColor=#d5e8d4;strokeColor=#82b366;" vertex="1" parent="1">
          <mxGeometry x="-162.75" y="504" width="1192.75" height="356" as="geometry" />
        </mxCell>
        <mxCell id="ITVhtlflYJVLFZy4s-Fa-102" value="" style="rounded=1;whiteSpace=wrap;html=1;fillColor=#d5e8d4;strokeColor=#82b366;" parent="1" vertex="1">
          <mxGeometry x="88.25" y="-45.5" width="328" height="244" as="geometry" />
        </mxCell>
        <mxCell id="I-vlI1pOJOIMVIl76UBa-226" value="" style="rounded=1;whiteSpace=wrap;html=1;fillColor=#d5e8d4;strokeColor=#82b366;" parent="1" vertex="1">
          <mxGeometry x="432" y="-45.5" width="328" height="244" as="geometry" />
        </mxCell>
        <mxCell id="9" value="&lt;p style=&quot;text-decoration-line: underline; margin: 4px 0px 0px;&quot;&gt;&lt;strong&gt;&lt;strong&gt;Process&lt;/strong&gt;&amp;nbsp;1.2&lt;br&gt;&lt;/strong&gt;&lt;/p&gt;&lt;hr&gt;&lt;p style=&quot;margin: 0px 0px 0px 8px;&quot;&gt;Retrieval&lt;/p&gt;&lt;p style=&quot;margin: 0px 0px 0px 8px;&quot;&gt;（Rerank）&lt;/p&gt;" style="verticalAlign=middle;align=center;overflow=fill;fontSize=12;fontFamily=Helvetica;html=1;rounded=1;fontStyle=1;strokeWidth=3;fillColor=#f5f5f5;fontColor=#333333;strokeColor=#666666;" parent="1" vertex="1">
          <mxGeometry x="341" y="568" width="110" height="90" as="geometry" />
        </mxCell>
        <mxCell id="10" value="&lt;p style=&quot;margin: 0px; margin-top: 4px; text-align: center; text-decoration: underline;&quot;&gt;&lt;strong&gt;&lt;strong&gt;Process&lt;/strong&gt;&amp;nbsp;1.1&lt;br&gt;&lt;/strong&gt;&lt;/p&gt;&lt;hr&gt;&lt;p style=&quot;margin: 0px; margin-left: 8px;&quot;&gt;Retrieval&lt;/p&gt;&lt;p style=&quot;margin: 0px; margin-left: 8px;&quot;&gt;（Embedding）&lt;/p&gt;" style="verticalAlign=middle;align=center;overflow=fill;fontSize=12;fontFamily=Helvetica;html=1;rounded=1;fontStyle=1;strokeWidth=3;fillColor=#f5f5f5;fontColor=#333333;strokeColor=#666666;" parent="1" vertex="1">
          <mxGeometry x="-10.500000000000085" y="568" width="110" height="90" as="geometry" />
        </mxCell>
        <mxCell id="90" value="query" style="text;spacingTop=-5;align=center;strokeWidth=3;fontSize=14;" parent="1" vertex="1">
          <mxGeometry x="50" y="504" width="30" height="20" as="geometry" />
        </mxCell>
        <mxCell id="I-vlI1pOJOIMVIl76UBa-96" value="Dense&lt;div&gt;Vector&lt;/div&gt;&lt;div&gt;Database&lt;/div&gt;" style="shape=cylinder3;whiteSpace=wrap;html=1;boundedLbl=1;backgroundOutline=1;size=15;fillColor=#ffe6cc;strokeColor=#000000;fillStyle=auto;strokeWidth=2;" parent="1" vertex="1">
          <mxGeometry x="-99.5" y="762" width="76.5" height="90" as="geometry" />
        </mxCell>
        <mxCell id="I-vlI1pOJOIMVIl76UBa-99" value="&lt;div&gt;Sparse&lt;/div&gt;&lt;div&gt;Vector&lt;/div&gt;&lt;div&gt;Database&lt;/div&gt;" style="shape=cylinder3;whiteSpace=wrap;html=1;boundedLbl=1;backgroundOutline=1;size=15;fillColor=#ffe6cc;strokeColor=#000000;fillStyle=auto;strokeWidth=2;" parent="1" vertex="1">
          <mxGeometry x="-6.25" y="762" width="76.5" height="90" as="geometry" />
        </mxCell>
        <mxCell id="I-vlI1pOJOIMVIl76UBa-100" value="&lt;div&gt;ES&lt;/div&gt;&lt;div&gt;Database&lt;/div&gt;" style="shape=cylinder3;whiteSpace=wrap;html=1;boundedLbl=1;backgroundOutline=1;size=15;fillColor=#ffe6cc;strokeColor=#000000;fillStyle=auto;strokeWidth=2;" parent="1" vertex="1">
          <mxGeometry x="88" y="762" width="76.5" height="90" as="geometry" />
        </mxCell>
        <mxCell id="I-vlI1pOJOIMVIl76UBa-103" value="" style="shape=flexArrow;endArrow=classic;html=1;rounded=0;fillColor=#ffcccc;strokeWidth=2;strokeColor=#990000;" parent="1" edge="1">
          <mxGeometry width="50" height="50" relative="1" as="geometry">
            <mxPoint x="37" y="738" as="sourcePoint" />
            <mxPoint x="37" y="678" as="targetPoint" />
          </mxGeometry>
        </mxCell>
        <mxCell id="I-vlI1pOJOIMVIl76UBa-104" value="Vectorization&#xa;（Embedding）" style="whiteSpace=wrap;align=center;verticalAlign=middle;fontStyle=1;strokeWidth=3;fillColor=#FFFFCC" parent="1" vertex="1">
          <mxGeometry x="250" y="777" width="90" height="60" as="geometry" />
        </mxCell>
        <mxCell id="I-vlI1pOJOIMVIl76UBa-105" value="Preprocessing&#xa;&amp;Splitter" style="whiteSpace=wrap;align=center;verticalAlign=middle;fontStyle=1;strokeWidth=3;fillColor=#FFFFCC" parent="1" vertex="1">
          <mxGeometry x="430" y="777" width="90" height="60" as="geometry" />
        </mxCell>
        <mxCell id="I-vlI1pOJOIMVIl76UBa-107" value="" style="shape=image;html=1;verticalAlign=top;verticalLabelPosition=bottom;labelBackgroundColor=#ffffff;imageAspect=0;aspect=fixed;image=https://cdn1.iconfinder.com/data/icons/bootstrap-vol-3/16/filetype-txt-128.png" parent="1" vertex="1">
          <mxGeometry x="611" y="777" width="58" height="58" as="geometry" />
        </mxCell>
        <mxCell id="I-vlI1pOJOIMVIl76UBa-108" value="" style="shape=flexArrow;endArrow=classic;html=1;rounded=0;fillColor=#ffcccc;strokeWidth=2;strokeColor=#990000;" parent="1" edge="1">
          <mxGeometry width="50" height="50" relative="1" as="geometry">
            <mxPoint x="233.75" y="805.55" as="sourcePoint" />
            <mxPoint x="170.25" y="805.55" as="targetPoint" />
          </mxGeometry>
        </mxCell>
        <mxCell id="I-vlI1pOJOIMVIl76UBa-110" value="" style="shape=flexArrow;endArrow=classic;html=1;rounded=0;fillColor=#ffcccc;strokeWidth=2;strokeColor=#990000;" parent="1" edge="1">
          <mxGeometry width="50" height="50" relative="1" as="geometry">
            <mxPoint x="411" y="805.55" as="sourcePoint" />
            <mxPoint x="347.5" y="805.55" as="targetPoint" />
          </mxGeometry>
        </mxCell>
        <mxCell id="I-vlI1pOJOIMVIl76UBa-112" value="" style="shape=flexArrow;endArrow=classic;html=1;rounded=0;fillColor=#ffcccc;strokeWidth=2;strokeColor=#990000;" parent="1" edge="1">
          <mxGeometry width="50" height="50" relative="1" as="geometry">
            <mxPoint x="601" y="805.55" as="sourcePoint" />
            <mxPoint x="537.5" y="805.55" as="targetPoint" />
          </mxGeometry>
        </mxCell>
        <mxCell id="I-vlI1pOJOIMVIl76UBa-121" value="&lt;div style=&quot;&quot;&gt;&lt;b style=&quot;background-color: initial;&quot;&gt;&amp;nbsp; &amp;nbsp; &amp;nbsp; &amp;nbsp;chunks&amp;nbsp; &amp;nbsp; &amp;nbsp; &amp;nbsp; &amp;nbsp;&amp;nbsp;&lt;/b&gt;&lt;/div&gt;&lt;div&gt;&lt;b&gt;&lt;br&gt;&lt;/b&gt;&lt;div&gt;&lt;b style=&quot;background-color: initial;&quot;&gt;&lt;br&gt;&lt;/b&gt;&lt;/div&gt;&lt;div style=&quot;text-align: left;&quot;&gt;&lt;b style=&quot;background-color: initial;&quot;&gt;#1&amp;nbsp;&lt;/b&gt;&lt;br&gt;&lt;/div&gt;&lt;div style=&quot;text-align: left;&quot;&gt;&lt;b style=&quot;background-color: initial;&quot;&gt;&lt;br&gt;&lt;/b&gt;&lt;/div&gt;&lt;div style=&quot;text-align: left;&quot;&gt;&lt;b style=&quot;background-color: initial;&quot;&gt;&lt;br&gt;&lt;/b&gt;&lt;/div&gt;&lt;div&gt;&lt;b&gt;&lt;br&gt;&lt;/b&gt;&lt;/div&gt;&lt;div style=&quot;text-align: left;&quot;&gt;&lt;b&gt;#2&lt;/b&gt;&lt;/div&gt;&lt;div&gt;&lt;b&gt;&lt;br&gt;&lt;/b&gt;&lt;/div&gt;&lt;div&gt;&lt;b&gt;...&lt;/b&gt;&lt;/div&gt;&lt;div&gt;&lt;b&gt;&lt;br&gt;&lt;/b&gt;&lt;/div&gt;&lt;div style=&quot;text-align: left;&quot;&gt;&lt;b&gt;#300&lt;/b&gt;&lt;/div&gt;&lt;/div&gt;" style="rounded=1;whiteSpace=wrap;html=1;strokeWidth=2;dashed=1;align=center;" parent="1" vertex="1">
          <mxGeometry x="166" y="519" width="110" height="210" as="geometry" />
        </mxCell>
        <mxCell id="I-vlI1pOJOIMVIl76UBa-122" value="" style="sketch=0;pointerEvents=1;shadow=0;dashed=0;html=1;strokeColor=none;fillColor=#434445;aspect=fixed;labelPosition=center;verticalLabelPosition=bottom;verticalAlign=top;align=center;outlineConnect=0;shape=mxgraph.vvd.document;" parent="1" vertex="1">
          <mxGeometry x="210" y="569" width="23.25" height="31.85" as="geometry" />
        </mxCell>
        <mxCell id="I-vlI1pOJOIMVIl76UBa-123" value="" style="sketch=0;pointerEvents=1;shadow=0;dashed=0;html=1;strokeColor=none;fillColor=#434445;aspect=fixed;labelPosition=center;verticalLabelPosition=bottom;verticalAlign=top;align=center;outlineConnect=0;shape=mxgraph.vvd.document;" parent="1" vertex="1">
          <mxGeometry x="210" y="629" width="23.25" height="31.85" as="geometry" />
        </mxCell>
        <mxCell id="I-vlI1pOJOIMVIl76UBa-124" value="" style="sketch=0;pointerEvents=1;shadow=0;dashed=0;html=1;strokeColor=none;fillColor=#434445;aspect=fixed;labelPosition=center;verticalLabelPosition=bottom;verticalAlign=top;align=center;outlineConnect=0;shape=mxgraph.vvd.document;" parent="1" vertex="1">
          <mxGeometry x="211" y="689" width="23.25" height="31.85" as="geometry" />
        </mxCell>
        <mxCell id="I-vlI1pOJOIMVIl76UBa-125" value="" style="shape=flexArrow;endArrow=classic;html=1;rounded=0;fillColor=#ffcccc;strokeWidth=2;strokeColor=#990000;" parent="1" edge="1">
          <mxGeometry width="50" height="50" relative="1" as="geometry">
            <mxPoint x="107.5" y="610.55" as="sourcePoint" />
            <mxPoint x="159" y="611" as="targetPoint" />
          </mxGeometry>
        </mxCell>
        <mxCell id="I-vlI1pOJOIMVIl76UBa-127" value="" style="shape=flexArrow;endArrow=classic;html=1;rounded=0;fillColor=#ffcccc;strokeWidth=2;strokeColor=#990000;" parent="1" edge="1">
          <mxGeometry width="50" height="50" relative="1" as="geometry">
            <mxPoint x="286.5" y="612.55" as="sourcePoint" />
            <mxPoint x="338" y="613" as="targetPoint" />
          </mxGeometry>
        </mxCell>
        <mxCell id="I-vlI1pOJOIMVIl76UBa-129" value="&lt;div style=&quot;&quot;&gt;&lt;b style=&quot;background-color: initial;&quot;&gt;&amp;nbsp; &amp;nbsp; &amp;nbsp; &amp;nbsp;chunks&amp;nbsp; &amp;nbsp; &amp;nbsp; &amp;nbsp; &amp;nbsp;&amp;nbsp;&lt;/b&gt;&lt;/div&gt;&lt;div&gt;&lt;b&gt;&lt;br&gt;&lt;/b&gt;&lt;div&gt;&lt;b style=&quot;background-color: initial;&quot;&gt;&lt;br&gt;&lt;/b&gt;&lt;/div&gt;&lt;div style=&quot;text-align: left;&quot;&gt;&lt;b style=&quot;background-color: initial;&quot;&gt;#8&amp;nbsp;&lt;/b&gt;&lt;br&gt;&lt;/div&gt;&lt;div style=&quot;text-align: left;&quot;&gt;&lt;b style=&quot;background-color: initial;&quot;&gt;&lt;br&gt;&lt;/b&gt;&lt;/div&gt;&lt;div style=&quot;text-align: left;&quot;&gt;&lt;b style=&quot;background-color: initial;&quot;&gt;&lt;br&gt;&lt;/b&gt;&lt;/div&gt;&lt;div&gt;&lt;b&gt;&lt;br&gt;&lt;/b&gt;&lt;/div&gt;&lt;div style=&quot;text-align: left;&quot;&gt;&lt;b&gt;#50&lt;/b&gt;&lt;/div&gt;&lt;div&gt;&lt;b&gt;&lt;br&gt;&lt;/b&gt;&lt;/div&gt;&lt;div&gt;&lt;b&gt;...&lt;/b&gt;&lt;/div&gt;&lt;div&gt;&lt;b&gt;&lt;br&gt;&lt;/b&gt;&lt;/div&gt;&lt;div style=&quot;text-align: left;&quot;&gt;&lt;b&gt;#110&lt;/b&gt;&lt;/div&gt;&lt;/div&gt;" style="rounded=1;whiteSpace=wrap;html=1;strokeWidth=2;dashed=1;align=center;" parent="1" vertex="1">
          <mxGeometry x="520" y="519" width="110" height="210" as="geometry" />
        </mxCell>
        <mxCell id="I-vlI1pOJOIMVIl76UBa-130" value="" style="sketch=0;pointerEvents=1;shadow=0;dashed=0;html=1;strokeColor=none;fillColor=#434445;aspect=fixed;labelPosition=center;verticalLabelPosition=bottom;verticalAlign=top;align=center;outlineConnect=0;shape=mxgraph.vvd.document;" parent="1" vertex="1">
          <mxGeometry x="564" y="569" width="23.25" height="31.85" as="geometry" />
        </mxCell>
        <mxCell id="I-vlI1pOJOIMVIl76UBa-131" value="" style="sketch=0;pointerEvents=1;shadow=0;dashed=0;html=1;strokeColor=none;fillColor=#434445;aspect=fixed;labelPosition=center;verticalLabelPosition=bottom;verticalAlign=top;align=center;outlineConnect=0;shape=mxgraph.vvd.document;" parent="1" vertex="1">
          <mxGeometry x="564" y="629" width="23.25" height="31.85" as="geometry" />
        </mxCell>
        <mxCell id="I-vlI1pOJOIMVIl76UBa-132" value="" style="sketch=0;pointerEvents=1;shadow=0;dashed=0;html=1;strokeColor=none;fillColor=#434445;aspect=fixed;labelPosition=center;verticalLabelPosition=bottom;verticalAlign=top;align=center;outlineConnect=0;shape=mxgraph.vvd.document;" parent="1" vertex="1">
          <mxGeometry x="565" y="689" width="23.25" height="31.85" as="geometry" />
        </mxCell>
        <mxCell id="I-vlI1pOJOIMVIl76UBa-133" value="" style="shape=flexArrow;endArrow=classic;html=1;rounded=0;fillColor=#ffcccc;strokeWidth=2;strokeColor=#990000;" parent="1" edge="1">
          <mxGeometry width="50" height="50" relative="1" as="geometry">
            <mxPoint x="460.5" y="612.55" as="sourcePoint" />
            <mxPoint x="512" y="613" as="targetPoint" />
          </mxGeometry>
        </mxCell>
        <mxCell id="I-vlI1pOJOIMVIl76UBa-134" value="" style="edgeStyle=segmentEdgeStyle;strokeColor=#990000;strokeWidth=2;entryX=0.5;entryY=1;entryDx=0;entryDy=0;" parent="1" target="I-vlI1pOJOIMVIl76UBa-151" edge="1">
          <mxGeometry width="100" height="100" relative="1" as="geometry">
            <mxPoint x="927" y="570.85" as="sourcePoint" />
            <mxPoint x="242.5" y="463.35" as="targetPoint" />
            <Array as="points">
              <mxPoint x="927" y="486" />
              <mxPoint x="243" y="486" />
            </Array>
          </mxGeometry>
        </mxCell>
        <mxCell id="I-vlI1pOJOIMVIl76UBa-135" value="Related documents (less than 4k in length each)" style="text;spacingTop=-5;align=center;fontSize=14;" parent="1" vertex="1">
          <mxGeometry x="600.88" y="470" width="30" height="20" as="geometry" />
        </mxCell>
        <mxCell id="I-vlI1pOJOIMVIl76UBa-136" value="&lt;p style=&quot;text-decoration-line: underline; margin: 4px 0px 0px;&quot;&gt;&lt;strong&gt;&lt;strong&gt;Process&lt;/strong&gt;&amp;nbsp;1.3&lt;br&gt;&lt;/strong&gt;&lt;/p&gt;&lt;hr&gt;&lt;p style=&quot;margin: 0px 0px 0px 8px;&quot;&gt;Deduplication&amp;nbsp;&lt;/p&gt;&lt;p style=&quot;margin: 0px 0px 0px 8px;&quot;&gt;&amp;amp; splicing&lt;br&gt;&lt;/p&gt;" style="verticalAlign=middle;align=center;overflow=fill;fontSize=12;fontFamily=Helvetica;html=1;rounded=1;fontStyle=1;strokeWidth=3;fillColor=#f5f5f5;fontColor=#333333;strokeColor=#666666;" parent="1" vertex="1">
          <mxGeometry x="694" y="570.85" width="110" height="90" as="geometry" />
        </mxCell>
        <mxCell id="I-vlI1pOJOIMVIl76UBa-137" value="" style="shape=flexArrow;endArrow=classic;html=1;rounded=0;fillColor=#ffcccc;strokeWidth=2;strokeColor=#990000;" parent="1" edge="1">
          <mxGeometry width="50" height="50" relative="1" as="geometry">
            <mxPoint x="636" y="615.4" as="sourcePoint" />
            <mxPoint x="687.5" y="615.85" as="targetPoint" />
          </mxGeometry>
        </mxCell>
        <mxCell id="I-vlI1pOJOIMVIl76UBa-138" value="&lt;div style=&quot;&quot;&gt;&lt;b style=&quot;background-color: initial;&quot;&gt;&amp;nbsp; &amp;nbsp; &amp;nbsp;doucments&amp;nbsp; &amp;nbsp; &amp;nbsp;&amp;nbsp;&lt;/b&gt;&lt;/div&gt;&lt;div&gt;&lt;b&gt;&lt;br&gt;&lt;/b&gt;&lt;div&gt;&lt;b style=&quot;background-color: initial;&quot;&gt;&lt;br&gt;&lt;/b&gt;&lt;/div&gt;&lt;div style=&quot;text-align: left;&quot;&gt;&lt;b style=&quot;background-color: initial;&quot;&gt;#8&lt;/b&gt;&lt;br&gt;&lt;/div&gt;&lt;div style=&quot;text-align: left;&quot;&gt;&lt;b style=&quot;background-color: initial;&quot;&gt;&lt;br&gt;&lt;/b&gt;&lt;/div&gt;&lt;div style=&quot;text-align: left;&quot;&gt;&lt;b style=&quot;background-color: initial;&quot;&gt;&lt;br&gt;&lt;/b&gt;&lt;/div&gt;&lt;div&gt;&lt;b&gt;&lt;br&gt;&lt;/b&gt;&lt;/div&gt;&lt;div style=&quot;text-align: left;&quot;&gt;&lt;b&gt;#50&lt;/b&gt;&lt;/div&gt;&lt;div&gt;&lt;b&gt;&lt;br&gt;&lt;/b&gt;&lt;/div&gt;&lt;div&gt;&lt;b&gt;...&lt;/b&gt;&lt;/div&gt;&lt;div&gt;&lt;b&gt;&lt;br&gt;&lt;/b&gt;&lt;/div&gt;&lt;div style=&quot;text-align: left;&quot;&gt;&lt;b&gt;#110&lt;/b&gt;&lt;/div&gt;&lt;/div&gt;" style="rounded=1;whiteSpace=wrap;html=1;strokeWidth=2;dashed=1;align=center;" parent="1" vertex="1">
          <mxGeometry x="870" y="519" width="110" height="210" as="geometry" />
        </mxCell>
        <mxCell id="I-vlI1pOJOIMVIl76UBa-139" value="" style="sketch=0;pointerEvents=1;shadow=0;dashed=0;html=1;strokeColor=none;fillColor=#434445;aspect=fixed;labelPosition=center;verticalLabelPosition=bottom;verticalAlign=top;align=center;outlineConnect=0;shape=mxgraph.vvd.document;" parent="1" vertex="1">
          <mxGeometry x="914" y="569" width="23.25" height="31.85" as="geometry" />
        </mxCell>
        <mxCell id="I-vlI1pOJOIMVIl76UBa-140" value="" style="sketch=0;pointerEvents=1;shadow=0;dashed=0;html=1;strokeColor=none;fillColor=#434445;aspect=fixed;labelPosition=center;verticalLabelPosition=bottom;verticalAlign=top;align=center;outlineConnect=0;shape=mxgraph.vvd.document;" parent="1" vertex="1">
          <mxGeometry x="914" y="629" width="23.25" height="31.85" as="geometry" />
        </mxCell>
        <mxCell id="I-vlI1pOJOIMVIl76UBa-141" value="" style="sketch=0;pointerEvents=1;shadow=0;dashed=0;html=1;strokeColor=none;fillColor=#434445;aspect=fixed;labelPosition=center;verticalLabelPosition=bottom;verticalAlign=top;align=center;outlineConnect=0;shape=mxgraph.vvd.document;" parent="1" vertex="1">
          <mxGeometry x="915" y="689" width="23.25" height="31.85" as="geometry" />
        </mxCell>
        <mxCell id="I-vlI1pOJOIMVIl76UBa-142" value="" style="shape=flexArrow;endArrow=classic;html=1;rounded=0;fillColor=#ffcccc;strokeWidth=2;strokeColor=#990000;" parent="1" edge="1">
          <mxGeometry width="50" height="50" relative="1" as="geometry">
            <mxPoint x="810" y="612.55" as="sourcePoint" />
            <mxPoint x="861.5" y="613" as="targetPoint" />
          </mxGeometry>
        </mxCell>
        <mxCell id="I-vlI1pOJOIMVIl76UBa-151" value="&lt;p style=&quot;margin: 4px 0px 0px; text-align: center; text-decoration: underline; font-size: 16px;&quot;&gt;&lt;strong style=&quot;font-size: 16px;&quot;&gt;Process 2&lt;br style=&quot;font-size: 16px;&quot;&gt;&lt;/strong&gt;&lt;/p&gt;&lt;hr style=&quot;font-size: 16px;&quot;&gt;&lt;p style=&quot;margin: 0px 0px 0px 8px; font-size: 16px;&quot;&gt;Format&amp;nbsp;&lt;/p&gt;&lt;p style=&quot;margin: 0px 0px 0px 8px; font-size: 16px;&quot;&gt;Input&lt;/p&gt;" style="verticalAlign=middle;align=center;overflow=fill;fontSize=16;fontFamily=Helvetica;html=1;rounded=1;fontStyle=1;strokeWidth=3;fillColor=#fad7ac;strokeColor=#b46504;" parent="1" vertex="1">
          <mxGeometry x="187.5" y="359" width="110" height="90" as="geometry" />
        </mxCell>
        <mxCell id="I-vlI1pOJOIMVIl76UBa-152" value="&lt;p style=&quot;margin: 4px 0px 0px; text-align: center; text-decoration: underline; font-size: 16px;&quot;&gt;&lt;strong style=&quot;font-size: 16px;&quot;&gt;&lt;strong style=&quot;font-size: 16px;&quot;&gt;Process&lt;/strong&gt;&amp;nbsp;3&lt;br style=&quot;font-size: 16px;&quot;&gt;&lt;/strong&gt;&lt;/p&gt;&lt;hr style=&quot;font-size: 16px;&quot;&gt;&lt;p style=&quot;margin: 0px 0px 0px 8px; font-size: 16px;&quot;&gt;Generate&amp;nbsp;&lt;/p&gt;&lt;p style=&quot;margin: 0px 0px 0px 8px; font-size: 16px;&quot;&gt;Response&lt;br style=&quot;font-size: 16px;&quot;&gt;&lt;/p&gt;" style="verticalAlign=middle;align=center;overflow=fill;fontSize=16;fontFamily=Helvetica;html=1;rounded=1;fontStyle=1;strokeWidth=3;fillColor=#fad7ac;strokeColor=#b46504;" parent="1" vertex="1">
          <mxGeometry x="517" y="359" width="110" height="90" as="geometry" />
        </mxCell>
        <mxCell id="I-vlI1pOJOIMVIl76UBa-153" value="prompt" style="whiteSpace=wrap;align=center;verticalAlign=middle;fontStyle=1;strokeWidth=3;fillColor=#FFFFCC;fontSize=15;" parent="1" vertex="1">
          <mxGeometry x="197.5" y="249" width="90" height="60" as="geometry" />
        </mxCell>
        <mxCell id="I-vlI1pOJOIMVIl76UBa-155" value="" style="edgeStyle=none;noEdgeStyle=1;strokeColor=#CC0000;strokeWidth=5;entryX=0;entryY=0.5;entryDx=0;entryDy=0;fontSize=16;" parent="1" target="ITVhtlflYJVLFZy4s-Fa-92" edge="1">
          <mxGeometry width="100" height="100" relative="1" as="geometry">
            <mxPoint x="-70" y="404" as="sourcePoint" />
            <mxPoint x="-20" y="410" as="targetPoint" />
          </mxGeometry>
        </mxCell>
        <mxCell id="I-vlI1pOJOIMVIl76UBa-158" value="" style="edgeStyle=elbowEdgeStyle;elbow=horizontal;strokeColor=#990000;strokeWidth=2;startArrow=classic;startFill=1;endArrow=none;endFill=0;" parent="1" source="I-vlI1pOJOIMVIl76UBa-151" edge="1">
          <mxGeometry width="100" height="100" relative="1" as="geometry">
            <mxPoint x="250" y="356" as="sourcePoint" />
            <mxPoint x="260" y="320" as="targetPoint" />
            <Array as="points">
              <mxPoint x="260" y="310" />
              <mxPoint x="250" y="266" />
            </Array>
          </mxGeometry>
        </mxCell>
        <mxCell id="I-vlI1pOJOIMVIl76UBa-159" value="" style="shape=image;verticalLabelPosition=bottom;verticalAlign=top;imageAspect=0;aspect=fixed;image=data:image/png,iVBORw0KGgoAAAANSUhEUgAAAMgAAADICAYAAACtWK6eAAAAAXNSR0IArs4c6QAAD35JREFUeF7tXe2V2zYQFC89OC/VxO4gSQ1J2rDdRuwa4nRguZq8Sw8W83AyLYoCCGCxXwDH/3wiQGB2Z2d3QVHTCf+AABBIIjABGyAABNIIgCDwDiCwgwAIAvcAAiAIfAAI0BCAghTi9vsv/74Ol07TD2/vh8wvf6f9m87rcdM0f1n+/9ffP76jzYlRnAiAIAVo/vnb87t5Pm2IUTCw4ZJpOr0HSRoAZBoKgmSAtCDHsiSQhMnLG6YBQXbAsyTHsqx5vrz5+M9Pd6lYg70xtBIBEGQHsD9+fZ4r8RS5/MOnH2EnEWTzkwL4BEYe1OO2tOn84dOrN3lz4gpuBECQCKK+yHFdIOoRbtcvmw8EieAUS60WB7UkD1KtMqfmvAoE2aCZIsDaOf/49b/Pp1PL+QfVhEi1qMhRx4EgK+RS5NimN+HQcJqePlNBbxmHrlYLevVjQZAVZjFlSOX+dqkWVKTezekjQJBv2JWkVluYrVItFOx0h68dCYJ8Q2yvME+BaplqoWCvdXXa9SDI6XSiqMcCt5WKnE5ItWguXzfq8AQpLcz3YLU6cUfBXufslKsPT5CawjwFMAp2iuv1MebQBGlJrbwU7FARWaIdmiCUwtxfwY5aRJIihyUIp3pYF+xo+8pR5LAE4VSPxTyWbV+kWjIkOSRB4urBk6qgYJdxVKtZD0cQjrZuzlho++YQ6ufzwxFEIrXamttORVod7/4tK+vZ1m9cWf5+uVzuvgo84leDD0UQicI85ZJ2J+ytJOEcfyXcmlwLqXoh06EIoqEeHgp2TheXn2s6BwIF4ngkzWEIoqke1m1feaeWuUNoVweiPD09vfbyTrDDEERTPaAirQTi6Si2ruIlPeSYxPscFupxUxEfrw7ybqPt+rwcfg5PEI22bsr5LA8OeyNEbL0eDj8PSxCNLxz12+71QS8PKjI0QSzVI7iY1YGhD/duXwUI0o7h7gwWhfmyIKhHu3FBkHYMkzNYqgfIwWNY1CA8OEZngXoIgqs0NQgiBLRlWxfqwWdUEIQPy+8zWaZWKMy5DWp/YDhcFyvVOUJbl9t5NeYDQVhRhnqwwuliMus0aygFQWHuwqfZF6Gh/qlFD0MQqAe7X7qa0OpMZAiCWJMDnSsdLlmQZAiCoDDXcVAPd9GuSbonCNTDg9vqrkGzJumaIHupjQaISK10ibHcTTPV6pogqdRKC0A8rWtDkHBXrVRLlCDhC0MLhOF7xls4t6+NScEd+zI/Uis75/RxZ51DRHaCXL9F98Nbm1+BPZ00Uis8UuKDIhq2ZiWIdU6ulVpZ79OHe9qvQiPNYiOIB6fRiCge9mnvmj5WoBEQ2QjSXrCmX3u5NUfqNZgaLx4LKWSsnprn6WcfbuNzFTGblax0r07VsDcLQfaj6u3NeQsgGhsrAR/XAIEcAs0EyaUcGnlibpP4HAhQERAnCH6umGoajPOAQBNBcuqxbBAq4sHUWAMFARWCQEUopsEYDwiQCVKqHlARD2Yecw2hoyjd8CETpP4HYnQeDRjTFbCrGAIhSEv/TAKJILXqARWBg3MjsLwYXPpwmEQQ+qEgVITbUY4635LBuCMIVT0WQ2o8HnBUpznKvtc/KyHdIa1WELp63MwnzfqjOMoR93kfoOUzkiqCtKoHVOSILs2753VzSFo9wsqLCcJFDhTsvA5zpNm2PqiRiZgRBIeHR3Lt9r0+/pydfHpVrCDc6gEVaXeYI80Q+61HjfSqmCAchXncoDpR4EjONOJeHw+l9fwmm2JJqQcK9hFdmX9PlupRpCBy6oG2L787jTejpXpkCSKtHjdz6knmeC407o6s1WOXIHrkuBpYq+ga153G25m1ergiCNq+4zl4y45iAdoiiCaLdI3aYwugBQAtRsRYGQTi2YtNGh4liHZ6tYZZ43RUxqyYlQuB+HeNHBHEQj3Q9uVyr/7niQVoq6fAowpS/21BXqMg1eLFs7fZQJCsxWzkNLssXKCGQCyLsUi/owoS6z+rIfPtRlARbcR93c+Liux0sf77bPUTBldTQUV8uaz+ajyoSJIgHlTEqjBbXCFEsbVbpF9QPT/8OJC+O7Xc0Wcw8qAiuw8rWhfrweQWeefiapbdvBZ3rx1riXFurdYqsksQDypimWpZngflHIfrc++1nrWKZB9396Ailkb0sH8uMjzO4zO12q7TkiRZgkBFnt/N8+mtnJPazew5tdqi8phq6ZA7S5CwUA9R1FJFRky1LPGkhAQrFSkiyNFV5BoknmeKYX2O0Ym+3HuPBWppFSwiSNiohyhq2fb1sH8uh+tNPZZ9xwK1tE8UE8RLqiUdMfaccAwV6VM91mdT65rQFUGOnmqNoCK9qsc6cGm+QK5KQbyoiKWR+1aRvtVjTRKtF1hXEwQq0m/b1zKwcNVP63mWYCWZZlUTxEvBbmnsPlOtcdTj8VGg6Rz+Nk3zF+5fnCIRxEfb087gPRLEMqBIqEcqUHM3ccgE8ZBqWRq9L5LYBRMpcjyqyPUv3OkWmSA+CnZbw/dSsFsGEmmCPAYqXp9oIogHFeGOGDUG7UFFLPGpwZJ6rfQjKE0E8aEitm9l9K4i3Dk51ZElx8VIwrXvZoKgYPfb9rVOrYLjcneVUkTbBiou5WQhiIdUw9IZPDzt/Og4vLl4rQIsPsHlqLn7S72qlIUgPlItO4fwECC2DmQZMLZZhdZatnbguC8bQTwU7ByA5CJV6nNfJLELFvHzCb31rFMtDn9gI8jRVcRHLXalL4djUANFKlBqrek+UE3nef76/uM/P72ctFP+sRLEg4po5bwxsD2oiOX+4+qxIKWpIvfvdGvBhJUg+wBR+EsboxWtYquzbfvqOSElQGjaZWsHatuXnSBHT7UsVUTTAWnBQY/A22yGqiIiBPGQalk6iw1J9JyPoh7LGE273LffafiIEAQqon94qOl4NPXQr0W2gYqiImIE8aAiFEBoVc/jKE0Vsdwnpe7UJHPr2YgYQXyoyDHe7UstQDmCATUQaK259fvrogSBisinWprRuKX22I7VVL0bSerrEFGCUOSXI6pt57B0Itm2b73BOfGlqod2wd7yXJg4Qa6plvVbCe0cqdWJ9hzakvg8KbSdXUoDhQpBJJ2kdKOWziSzf1vn4tqTpl2WlL8mvVMhCE+0KaVC6jo7h5KoxTQdq62tm7ebVsFOeZeWGkEknCQP/f0VNZGjdu7c9VwRN9zHch8SdaXmfm6Hh2UBU40gPlRkhLZvmWFzhKV+zkn09Rq0FPE+UOef9lUliAcV6f0n3bQcKUUguYaLHvHXe8iplypBvKiIpZO1OZieE3GeeZSqVc5ZS+fJXbd+RitX/6gTBCpCPzy0JLZWu15jjzcfzAccdYJARag/RpQ3Zi5ytnwuVXs8rklmn4EU63tN09PnkoaHOkF8KMgLNOcPn169aXEa6liKs2lE1tR+KOulYmMxbi/NUieIJ7C1ct7WfN5ynVqplQUxrvfcD5SqBPFEjsUglpG5rGC3UzqJMw87IsTvnAs+qgQpcwhtCO0csCRgWBJ4dPXIkeNFX7TcscQZtNayvY+lE+4HDTvyjqwegRiXy+Vc8jogNYL4VI+FKnaOuBc4LIk7snrU4KpCEM/q4bcWsSPtyOoR9uaOIL7Vw6eK1BhRIjXtw2a0nedOz9eziitID+rxnSLT6b3W6/q3pt2+MtPqjGZ09Qj7c0WQ3iKRZeResLJcw8i1x0tXqjIIiipIT+pxi+h2uX/AK6zDSsWgHo8pmxhB+iTHFSDrCE7LrNtH9Wyzkt3XqofoOUjfYNupSImhpa7pLR2uxaGm9vhel9bepOT6vslxTBUZwWZ7vklRDzEFGSMSHUtFxrBZnCJUcogQZKRI1AJsidJ6uWYkm8UwpaRWYinWaJFo9IJ9dHK0BjnWLtaYYI+dao0W0LYK0qIe7CnWqGCPqiJjBrTViVbloWAsPWNTkD7Anop+7XSa5i9rsEofjfZSU5Ssow97lewkfQ1HYGMhiA+wp3Nw7ODMC2Qlz/u3maDf0T5sJotfa3rFlmLZvYgh/2Y8WRP0OfsRyNFanLN3se5/MFHDccYuniURHLVW/O7UDLUHO0G0VYQjv5R0Qq9zj68evIGTpQZZnEELfC759OrEkusaWz14ycFWg6wNqmEAEIRGIa0ARlsdZdStKznPX99LNGVYFSRsUcMIHN0Jijl6H6MRvPYw6jGwsRMkACRZsPcIsgdiaQSu0cghkmKFSSULdqgHjW7W6tGr3UQUREpFoB40ckA9aLiJKYiMivB3KOiw9TNSUs1LUehVPUQJwq0iUI9Sd7y/DupBw20ZJZZicaoIyEEzMshBw209SpQgXG3fniW63UT0GawL8xECmzhBrqnW80w18wggU/feMg7q0YLebawKQVqMBfWgGbolKNHueD9qFLupEIRasEM9aK7aEpBod7wfNZLd1AhS224cCWQOpyudw5ocYZ2jqId4m3dr1JpHUEYCudS5Oa6zTq1GC2xqClLT9h0NZA7HL5nDWj1GtJsqQUrbvlCPEjo8XgP1oOG2N0qdILmCfcQoxG+2xxmhHjIomxBkr2BffoE0tV2JL8XIQKs3a20DRGJlo6q+CUFKUy0JQ+rOqfOAJdRDzqpmBMmlWnJb1p1Z+uUS1uQYra279Q5TgnhIDeTpIqsiKMxlLWhKkJrWrywMsrNLNR6gHrJ2C7ObE2TZYjD2drvzPP28D8H8Wh4injtIFLFQDx7buGvzym/L7g6ptJFbRazVg3s/dhbbv7MbBfEKEGVdqUdquAp2a3KMXpivbQ6CUBhQMCae/vAU7DXPtBUstfqSo6iHqxqk2krOB6SifKuKQD10DQ8FEcQ7HunbVASFuaDBIlODIIJ4pwp2qopAPQSNlZgaBBHGnFNFoB7CxoKC6APMpSLW6nGkwhxdLGWexJ27vBaxJsdLN4fxV5uU4W+6HVKsJvjKB8fSo1KnQ1u3HGfuK0EQbkQT86VUIPcIigf1yK1RCUKT24AgirDHlCCnIijMFQ2EIt0W7NqCHephay+cpBvgX9r29fBdmZy6GcCnfkukWMqQl6qIdWF+OpV32ZQhVL0dCKIK9/Vmuad9PaRWUI+rrUAQA4J4SJ/2tg1y3NABQQwIsqciRsu5u+2R27pb/EEQI4/0qiJQj3uHAEGMCBJu66HWWG8f5Hh0BhDEkCC+SIKuVcwVQBBjguiRZDrfq8X8Jfz/crm8/B2vdI07AgjigCDrJYTapHVJcPZWBNHF4kMQMw2NABRkaPNic60IgCCtCGL80AiAIEObF5trRQAEaUUQ44dG4H/cjpxu5SIGQQAAAABJRU5ErkJggg==" parent="1" vertex="1">
          <mxGeometry x="207.5" y="45.93000000000001" width="70" height="70" as="geometry" />
        </mxCell>
        <mxCell id="I-vlI1pOJOIMVIl76UBa-168" value="" style="rounded=1;whiteSpace=wrap;html=1;" parent="1" vertex="1">
          <mxGeometry x="146.5" y="-27.349999999999994" width="202.5" height="50" as="geometry" />
        </mxCell>
        <mxCell id="I-vlI1pOJOIMVIl76UBa-169" value="&lt;span style=&quot;font-family: Menlo, Monaco, &amp;quot;Courier New&amp;quot;, monospace; white-space: pre; font-size: 13px;&quot;&gt;&amp;lt;|im_start|&amp;gt;user&lt;/span&gt;&lt;div style=&quot;font-weight: 700; font-size: 13px;&quot;&gt;&lt;span style=&quot;font-family: Menlo, Monaco, &amp;quot;Courier New&amp;quot;, monospace; font-weight: 400; white-space: pre;&quot;&gt;先阅读以下多个参考文档，&lt;/span&gt;&lt;/div&gt;" style="text;html=1;align=left;verticalAlign=middle;rounded=0;horizontal=1;whiteSpace=wrap;" parent="1" vertex="1">
          <mxGeometry x="187.5" y="-17.349999999999994" width="161.5" height="30" as="geometry" />
        </mxCell>
        <mxCell id="I-vlI1pOJOIMVIl76UBa-180" value="" style="ellipse;whiteSpace=wrap;html=1;aspect=fixed;" parent="1" vertex="1">
          <mxGeometry x="150.5" y="-17.349999999999994" width="30" height="30" as="geometry" />
        </mxCell>
        <mxCell id="I-vlI1pOJOIMVIl76UBa-182" value="" style="edgeStyle=none;noEdgeStyle=1;strokeColor=#990000;strokeWidth=2;" parent="1" target="I-vlI1pOJOIMVIl76UBa-159" edge="1">
          <mxGeometry width="100" height="100" relative="1" as="geometry">
            <mxPoint x="243" y="25" as="sourcePoint" />
            <mxPoint x="-15.5" y="161.57999999999993" as="targetPoint" />
          </mxGeometry>
        </mxCell>
        <mxCell id="I-vlI1pOJOIMVIl76UBa-184" value="" style="rounded=1;whiteSpace=wrap;html=1;" parent="1" vertex="1">
          <mxGeometry x="124" y="142" width="262.5" height="50" as="geometry" />
        </mxCell>
        <mxCell id="I-vlI1pOJOIMVIl76UBa-185" value="&lt;span style=&quot;font-family: Menlo, Monaco, &amp;quot;Courier New&amp;quot;, monospace; font-size: 12px; white-space: pre;&quot;&gt;综合考虑文档中与问题有关的内容...&lt;/span&gt;" style="text;html=1;align=left;verticalAlign=middle;rounded=0;horizontal=1;whiteSpace=wrap;fontColor=default;fontSize=12;" parent="1" vertex="1">
          <mxGeometry x="165" y="152" width="161.5" height="30" as="geometry" />
        </mxCell>
        <mxCell id="I-vlI1pOJOIMVIl76UBa-186" value="" style="ellipse;whiteSpace=wrap;html=1;aspect=fixed;" parent="1" vertex="1">
          <mxGeometry x="128" y="152" width="30" height="30" as="geometry" />
        </mxCell>
        <mxCell id="I-vlI1pOJOIMVIl76UBa-187" value="" style="whiteSpace=wrap;html=1;aspect=fixed;fillColor=#EC7A98;" parent="1" vertex="1">
          <mxGeometry x="135.5" y="159.5" width="15" height="15" as="geometry" />
        </mxCell>
        <mxCell id="I-vlI1pOJOIMVIl76UBa-188" value="" style="triangle;whiteSpace=wrap;html=1;fillColor=#EC7A98;" parent="1" vertex="1">
          <mxGeometry x="159.75" y="-10.849999999999994" width="15.5" height="17" as="geometry" />
        </mxCell>
        <mxCell id="I-vlI1pOJOIMVIl76UBa-191" value="" style="edgeStyle=none;noEdgeStyle=1;strokeColor=#990000;strokeWidth=2;entryX=0.45;entryY=0.02;entryDx=0;entryDy=0;entryPerimeter=0;" parent="1" source="I-vlI1pOJOIMVIl76UBa-159" target="I-vlI1pOJOIMVIl76UBa-184" edge="1">
          <mxGeometry width="100" height="100" relative="1" as="geometry">
            <mxPoint x="51" y="161.57999999999993" as="sourcePoint" />
            <mxPoint x="131" y="162" as="targetPoint" />
          </mxGeometry>
        </mxCell>
        <mxCell id="I-vlI1pOJOIMVIl76UBa-192" value="Continuation" style="text;spacingTop=-5;align=center" parent="1" vertex="1">
          <mxGeometry x="296.5" y="76.85" width="30" height="20" as="geometry" />
        </mxCell>
        <mxCell id="I-vlI1pOJOIMVIl76UBa-206" value="" style="edgeStyle=none;noEdgeStyle=1;strokeColor=#CC0000;strokeWidth=5;fontSize=16;" parent="1" edge="1">
          <mxGeometry width="100" height="100" relative="1" as="geometry">
            <mxPoint x="297.5" y="403.5799999999999" as="sourcePoint" />
            <mxPoint x="513" y="404" as="targetPoint" />
          </mxGeometry>
        </mxCell>
        <mxCell id="I-vlI1pOJOIMVIl76UBa-207" value="" style="shape=image;verticalLabelPosition=bottom;verticalAlign=top;imageAspect=0;aspect=fixed;image=data:image/png,iVBORw0KGgoAAAANSUhEUgAAAMgAAADICAYAAACtWK6eAAAAAXNSR0IArs4c6QAAD35JREFUeF7tXe2V2zYQFC89OC/VxO4gSQ1J2rDdRuwa4nRguZq8Sw8W83AyLYoCCGCxXwDH/3wiQGB2Z2d3QVHTCf+AABBIIjABGyAABNIIgCDwDiCwgwAIAvcAAiAIfAAI0BCAghTi9vsv/74Ol07TD2/vh8wvf6f9m87rcdM0f1n+/9ffP76jzYlRnAiAIAVo/vnb87t5Pm2IUTCw4ZJpOr0HSRoAZBoKgmSAtCDHsiSQhMnLG6YBQXbAsyTHsqx5vrz5+M9Pd6lYg70xtBIBEGQHsD9+fZ4r8RS5/MOnH2EnEWTzkwL4BEYe1OO2tOn84dOrN3lz4gpuBECQCKK+yHFdIOoRbtcvmw8EieAUS60WB7UkD1KtMqfmvAoE2aCZIsDaOf/49b/Pp1PL+QfVhEi1qMhRx4EgK+RS5NimN+HQcJqePlNBbxmHrlYLevVjQZAVZjFlSOX+dqkWVKTezekjQJBv2JWkVluYrVItFOx0h68dCYJ8Q2yvME+BaplqoWCvdXXa9SDI6XSiqMcCt5WKnE5ItWguXzfq8AQpLcz3YLU6cUfBXufslKsPT5CawjwFMAp2iuv1MebQBGlJrbwU7FARWaIdmiCUwtxfwY5aRJIihyUIp3pYF+xo+8pR5LAE4VSPxTyWbV+kWjIkOSRB4urBk6qgYJdxVKtZD0cQjrZuzlho++YQ6ufzwxFEIrXamttORVod7/4tK+vZ1m9cWf5+uVzuvgo84leDD0UQicI85ZJ2J+ytJOEcfyXcmlwLqXoh06EIoqEeHgp2TheXn2s6BwIF4ngkzWEIoqke1m1feaeWuUNoVweiPD09vfbyTrDDEERTPaAirQTi6Si2ruIlPeSYxPscFupxUxEfrw7ybqPt+rwcfg5PEI22bsr5LA8OeyNEbL0eDj8PSxCNLxz12+71QS8PKjI0QSzVI7iY1YGhD/duXwUI0o7h7gwWhfmyIKhHu3FBkHYMkzNYqgfIwWNY1CA8OEZngXoIgqs0NQgiBLRlWxfqwWdUEIQPy+8zWaZWKMy5DWp/YDhcFyvVOUJbl9t5NeYDQVhRhnqwwuliMus0aygFQWHuwqfZF6Gh/qlFD0MQqAe7X7qa0OpMZAiCWJMDnSsdLlmQZAiCoDDXcVAPd9GuSbonCNTDg9vqrkGzJumaIHupjQaISK10ibHcTTPV6pogqdRKC0A8rWtDkHBXrVRLlCDhC0MLhOF7xls4t6+NScEd+zI/Uis75/RxZ51DRHaCXL9F98Nbm1+BPZ00Uis8UuKDIhq2ZiWIdU6ulVpZ79OHe9qvQiPNYiOIB6fRiCge9mnvmj5WoBEQ2QjSXrCmX3u5NUfqNZgaLx4LKWSsnprn6WcfbuNzFTGblax0r07VsDcLQfaj6u3NeQsgGhsrAR/XAIEcAs0EyaUcGnlibpP4HAhQERAnCH6umGoajPOAQBNBcuqxbBAq4sHUWAMFARWCQEUopsEYDwiQCVKqHlARD2Yecw2hoyjd8CETpP4HYnQeDRjTFbCrGAIhSEv/TAKJILXqARWBg3MjsLwYXPpwmEQQ+qEgVITbUY4635LBuCMIVT0WQ2o8HnBUpznKvtc/KyHdIa1WELp63MwnzfqjOMoR93kfoOUzkiqCtKoHVOSILs2753VzSFo9wsqLCcJFDhTsvA5zpNm2PqiRiZgRBIeHR3Lt9r0+/pydfHpVrCDc6gEVaXeYI80Q+61HjfSqmCAchXncoDpR4EjONOJeHw+l9fwmm2JJqQcK9hFdmX9PlupRpCBy6oG2L787jTejpXpkCSKtHjdz6knmeC407o6s1WOXIHrkuBpYq+ga153G25m1ergiCNq+4zl4y45iAdoiiCaLdI3aYwugBQAtRsRYGQTi2YtNGh4liHZ6tYZZ43RUxqyYlQuB+HeNHBHEQj3Q9uVyr/7niQVoq6fAowpS/21BXqMg1eLFs7fZQJCsxWzkNLssXKCGQCyLsUi/owoS6z+rIfPtRlARbcR93c+Liux0sf77bPUTBldTQUV8uaz+ajyoSJIgHlTEqjBbXCFEsbVbpF9QPT/8OJC+O7Xc0Wcw8qAiuw8rWhfrweQWeefiapbdvBZ3rx1riXFurdYqsksQDypimWpZngflHIfrc++1nrWKZB9396Ailkb0sH8uMjzO4zO12q7TkiRZgkBFnt/N8+mtnJPazew5tdqi8phq6ZA7S5CwUA9R1FJFRky1LPGkhAQrFSkiyNFV5BoknmeKYX2O0Ym+3HuPBWppFSwiSNiohyhq2fb1sH8uh+tNPZZ9xwK1tE8UE8RLqiUdMfaccAwV6VM91mdT65rQFUGOnmqNoCK9qsc6cGm+QK5KQbyoiKWR+1aRvtVjTRKtF1hXEwQq0m/b1zKwcNVP63mWYCWZZlUTxEvBbmnsPlOtcdTj8VGg6Rz+Nk3zF+5fnCIRxEfb087gPRLEMqBIqEcqUHM3ccgE8ZBqWRq9L5LYBRMpcjyqyPUv3OkWmSA+CnZbw/dSsFsGEmmCPAYqXp9oIogHFeGOGDUG7UFFLPGpwZJ6rfQjKE0E8aEitm9l9K4i3Dk51ZElx8VIwrXvZoKgYPfb9rVOrYLjcneVUkTbBiou5WQhiIdUw9IZPDzt/Og4vLl4rQIsPsHlqLn7S72qlIUgPlItO4fwECC2DmQZMLZZhdZatnbguC8bQTwU7ByA5CJV6nNfJLELFvHzCb31rFMtDn9gI8jRVcRHLXalL4djUANFKlBqrek+UE3nef76/uM/P72ctFP+sRLEg4po5bwxsD2oiOX+4+qxIKWpIvfvdGvBhJUg+wBR+EsboxWtYquzbfvqOSElQGjaZWsHatuXnSBHT7UsVUTTAWnBQY/A22yGqiIiBPGQalk6iw1J9JyPoh7LGE273LffafiIEAQqon94qOl4NPXQr0W2gYqiImIE8aAiFEBoVc/jKE0Vsdwnpe7UJHPr2YgYQXyoyDHe7UstQDmCATUQaK259fvrogSBisinWprRuKX22I7VVL0bSerrEFGCUOSXI6pt57B0Itm2b73BOfGlqod2wd7yXJg4Qa6plvVbCe0cqdWJ9hzakvg8KbSdXUoDhQpBJJ2kdKOWziSzf1vn4tqTpl2WlL8mvVMhCE+0KaVC6jo7h5KoxTQdq62tm7ebVsFOeZeWGkEknCQP/f0VNZGjdu7c9VwRN9zHch8SdaXmfm6Hh2UBU40gPlRkhLZvmWFzhKV+zkn09Rq0FPE+UOef9lUliAcV6f0n3bQcKUUguYaLHvHXe8iplypBvKiIpZO1OZieE3GeeZSqVc5ZS+fJXbd+RitX/6gTBCpCPzy0JLZWu15jjzcfzAccdYJARag/RpQ3Zi5ytnwuVXs8rklmn4EU63tN09PnkoaHOkF8KMgLNOcPn169aXEa6liKs2lE1tR+KOulYmMxbi/NUieIJ7C1ct7WfN5ynVqplQUxrvfcD5SqBPFEjsUglpG5rGC3UzqJMw87IsTvnAs+qgQpcwhtCO0csCRgWBJ4dPXIkeNFX7TcscQZtNayvY+lE+4HDTvyjqwegRiXy+Vc8jogNYL4VI+FKnaOuBc4LIk7snrU4KpCEM/q4bcWsSPtyOoR9uaOIL7Vw6eK1BhRIjXtw2a0nedOz9eziitID+rxnSLT6b3W6/q3pt2+MtPqjGZ09Qj7c0WQ3iKRZeResLJcw8i1x0tXqjIIiipIT+pxi+h2uX/AK6zDSsWgHo8pmxhB+iTHFSDrCE7LrNtH9Wyzkt3XqofoOUjfYNupSImhpa7pLR2uxaGm9vhel9bepOT6vslxTBUZwWZ7vklRDzEFGSMSHUtFxrBZnCJUcogQZKRI1AJsidJ6uWYkm8UwpaRWYinWaJFo9IJ9dHK0BjnWLtaYYI+dao0W0LYK0qIe7CnWqGCPqiJjBrTViVbloWAsPWNTkD7Anop+7XSa5i9rsEofjfZSU5Ssow97lewkfQ1HYGMhiA+wp3Nw7ODMC2Qlz/u3maDf0T5sJotfa3rFlmLZvYgh/2Y8WRP0OfsRyNFanLN3se5/MFHDccYuniURHLVW/O7UDLUHO0G0VYQjv5R0Qq9zj68evIGTpQZZnEELfC759OrEkusaWz14ycFWg6wNqmEAEIRGIa0ARlsdZdStKznPX99LNGVYFSRsUcMIHN0Jijl6H6MRvPYw6jGwsRMkACRZsPcIsgdiaQSu0cghkmKFSSULdqgHjW7W6tGr3UQUREpFoB40ckA9aLiJKYiMivB3KOiw9TNSUs1LUehVPUQJwq0iUI9Sd7y/DupBw20ZJZZicaoIyEEzMshBw209SpQgXG3fniW63UT0GawL8xECmzhBrqnW80w18wggU/feMg7q0YLebawKQVqMBfWgGbolKNHueD9qFLupEIRasEM9aK7aEpBod7wfNZLd1AhS224cCWQOpyudw5ocYZ2jqId4m3dr1JpHUEYCudS5Oa6zTq1GC2xqClLT9h0NZA7HL5nDWj1GtJsqQUrbvlCPEjo8XgP1oOG2N0qdILmCfcQoxG+2xxmhHjIomxBkr2BffoE0tV2JL8XIQKs3a20DRGJlo6q+CUFKUy0JQ+rOqfOAJdRDzqpmBMmlWnJb1p1Z+uUS1uQYra279Q5TgnhIDeTpIqsiKMxlLWhKkJrWrywMsrNLNR6gHrJ2C7ObE2TZYjD2drvzPP28D8H8Wh4injtIFLFQDx7buGvzym/L7g6ptJFbRazVg3s/dhbbv7MbBfEKEGVdqUdquAp2a3KMXpivbQ6CUBhQMCae/vAU7DXPtBUstfqSo6iHqxqk2krOB6SifKuKQD10DQ8FEcQ7HunbVASFuaDBIlODIIJ4pwp2qopAPQSNlZgaBBHGnFNFoB7CxoKC6APMpSLW6nGkwhxdLGWexJ27vBaxJsdLN4fxV5uU4W+6HVKsJvjKB8fSo1KnQ1u3HGfuK0EQbkQT86VUIPcIigf1yK1RCUKT24AgirDHlCCnIijMFQ2EIt0W7NqCHephay+cpBvgX9r29fBdmZy6GcCnfkukWMqQl6qIdWF+OpV32ZQhVL0dCKIK9/Vmuad9PaRWUI+rrUAQA4J4SJ/2tg1y3NABQQwIsqciRsu5u+2R27pb/EEQI4/0qiJQj3uHAEGMCBJu66HWWG8f5Hh0BhDEkCC+SIKuVcwVQBBjguiRZDrfq8X8Jfz/crm8/B2vdI07AgjigCDrJYTapHVJcPZWBNHF4kMQMw2NABRkaPNic60IgCCtCGL80AiAIEObF5trRQAEaUUQ44dG4H/cjpxu5SIGQQAAAABJRU5ErkJggg==" parent="1" vertex="1">
          <mxGeometry x="540.5" y="240" width="70" height="70" as="geometry" />
        </mxCell>
        <mxCell id="I-vlI1pOJOIMVIl76UBa-209" value="&lt;p style=&quot;margin: 4px 0px 0px; text-align: center; text-decoration: underline; font-size: 16px;&quot;&gt;&lt;strong style=&quot;font-size: 16px;&quot;&gt;&lt;strong style=&quot;font-size: 16px;&quot;&gt;Process&lt;/strong&gt;&amp;nbsp;4&lt;br style=&quot;font-size: 16px;&quot;&gt;&lt;/strong&gt;&lt;/p&gt;&lt;hr style=&quot;font-size: 16px;&quot;&gt;&lt;p style=&quot;margin: 0px 0px 0px 8px; font-size: 16px;&quot;&gt;Regular&amp;nbsp;&lt;span style=&quot;background-color: initial; font-size: 16px;&quot;&gt;&amp;nbsp;&lt;/span&gt;&lt;/p&gt;&lt;p style=&quot;margin: 0px 0px 0px 8px; font-size: 16px;&quot;&gt;Response&lt;br style=&quot;font-size: 16px;&quot;&gt;&lt;/p&gt;" style="verticalAlign=middle;align=center;overflow=fill;fontSize=16;fontFamily=Helvetica;html=1;rounded=1;fontStyle=1;strokeWidth=3;fillColor=#fad7ac;strokeColor=#b46504;" parent="1" vertex="1">
          <mxGeometry x="713" y="359" width="110" height="90" as="geometry" />
        </mxCell>
        <mxCell id="I-vlI1pOJOIMVIl76UBa-212" value="&lt;div style=&quot;&quot;&gt;&lt;b style=&quot;background-color: initial;&quot;&gt;&amp;nbsp; &amp;nbsp; &amp;nbsp;doucments&amp;nbsp; &amp;nbsp; &amp;nbsp;&amp;nbsp;&lt;/b&gt;&lt;/div&gt;&lt;div&gt;&lt;b&gt;&lt;br&gt;&lt;/b&gt;&lt;div&gt;&lt;b style=&quot;background-color: initial;&quot;&gt;&lt;br&gt;&lt;/b&gt;&lt;/div&gt;&lt;div style=&quot;text-align: left;&quot;&gt;&lt;b style=&quot;background-color: initial;&quot;&gt;#1&amp;nbsp; &amp;nbsp; &amp;nbsp; &amp;nbsp; &amp;nbsp; &amp;nbsp; &amp;nbsp; &amp;nbsp; &amp;nbsp;False&lt;/b&gt;&lt;br&gt;&lt;/div&gt;&lt;div style=&quot;text-align: left;&quot;&gt;&lt;b style=&quot;background-color: initial;&quot;&gt;&lt;br&gt;&lt;/b&gt;&lt;/div&gt;&lt;div style=&quot;text-align: left;&quot;&gt;&lt;b style=&quot;background-color: initial;&quot;&gt;&lt;br&gt;&lt;/b&gt;&lt;/div&gt;&lt;div&gt;&lt;b&gt;&lt;br&gt;&lt;/b&gt;&lt;/div&gt;&lt;div style=&quot;text-align: left;&quot;&gt;&lt;b&gt;#2&amp;nbsp;&amp;nbsp;&lt;/b&gt;&lt;b style=&quot;background-color: initial;&quot;&gt;&amp;nbsp; &amp;nbsp; &amp;nbsp; &amp;nbsp; &amp;nbsp; &amp;nbsp; &amp;nbsp; &amp;nbsp;True&lt;/b&gt;&lt;/div&gt;&lt;div&gt;&lt;b&gt;&lt;br&gt;&lt;/b&gt;&lt;/div&gt;&lt;div&gt;&lt;b&gt;...&lt;/b&gt;&lt;/div&gt;&lt;div&gt;&lt;b&gt;&lt;br&gt;&lt;/b&gt;&lt;/div&gt;&lt;div style=&quot;text-align: left;&quot;&gt;&lt;b&gt;#20&amp;nbsp; &amp;nbsp; &amp;nbsp; &amp;nbsp; &amp;nbsp; &amp;nbsp; &amp;nbsp; &amp;nbsp;False&lt;/b&gt;&lt;/div&gt;&lt;/div&gt;" style="rounded=1;whiteSpace=wrap;html=1;strokeWidth=2;dashed=1;align=center;" parent="1" vertex="1">
          <mxGeometry x="449.6700000000001" y="-20" width="110" height="210" as="geometry" />
        </mxCell>
        <mxCell id="I-vlI1pOJOIMVIl76UBa-213" value="" style="sketch=0;pointerEvents=1;shadow=0;dashed=0;html=1;strokeColor=none;fillColor=#434445;aspect=fixed;labelPosition=center;verticalLabelPosition=bottom;verticalAlign=top;align=center;outlineConnect=0;shape=mxgraph.vvd.document;" parent="1" vertex="1">
          <mxGeometry x="493.66999999999996" y="30" width="23.25" height="31.85" as="geometry" />
        </mxCell>
        <mxCell id="I-vlI1pOJOIMVIl76UBa-214" value="" style="sketch=0;pointerEvents=1;shadow=0;dashed=0;html=1;strokeColor=#b85450;fillColor=#f8cecc;aspect=fixed;labelPosition=center;verticalLabelPosition=bottom;verticalAlign=top;align=center;outlineConnect=0;shape=mxgraph.vvd.document;" parent="1" vertex="1">
          <mxGeometry x="493.66999999999996" y="90" width="23.25" height="31.85" as="geometry" />
        </mxCell>
        <mxCell id="I-vlI1pOJOIMVIl76UBa-215" value="" style="sketch=0;pointerEvents=1;shadow=0;dashed=0;html=1;strokeColor=none;fillColor=#434445;aspect=fixed;labelPosition=center;verticalLabelPosition=bottom;verticalAlign=top;align=center;outlineConnect=0;shape=mxgraph.vvd.document;" parent="1" vertex="1">
          <mxGeometry x="494.66999999999996" y="150" width="23.25" height="31.85" as="geometry" />
        </mxCell>
        <mxCell id="I-vlI1pOJOIMVIl76UBa-218" value="" style="edgeStyle=elbowEdgeStyle;elbow=horizontal;strokeColor=#990000;strokeWidth=2;startArrow=classic;startFill=1;endArrow=none;endFill=0;" parent="1" edge="1">
          <mxGeometry width="100" height="100" relative="1" as="geometry">
            <mxPoint x="569.34" y="355" as="sourcePoint" />
            <mxPoint x="568.5" y="311" as="targetPoint" />
            <Array as="points">
              <mxPoint x="568.5" y="311" />
              <mxPoint x="569.34" y="335" />
              <mxPoint x="667.34" y="318" />
            </Array>
          </mxGeometry>
        </mxCell>
        <mxCell id="I-vlI1pOJOIMVIl76UBa-219" value="" style="edgeStyle=elbowEdgeStyle;elbow=horizontal;strokeColor=#990000;strokeWidth=2;startArrow=none;startFill=0;endArrow=classic;endFill=1;" parent="1" edge="1">
          <mxGeometry width="100" height="100" relative="1" as="geometry">
            <mxPoint x="582.5400000000001" y="355" as="sourcePoint" />
            <mxPoint x="581.7" y="311" as="targetPoint" />
            <Array as="points">
              <mxPoint x="581.7" y="311" />
              <mxPoint x="582.5400000000001" y="335" />
              <mxPoint x="680.5400000000001" y="318" />
            </Array>
          </mxGeometry>
        </mxCell>
        <mxCell id="I-vlI1pOJOIMVIl76UBa-227" value="SFT model enhancement documentation attention" style="text;html=1;align=center;verticalAlign=middle;whiteSpace=wrap;rounded=0;fontStyle=1" parent="1" vertex="1">
          <mxGeometry x="431.12" y="-48" width="328.88" height="30" as="geometry" />
        </mxCell>
        <mxCell id="I-vlI1pOJOIMVIl76UBa-228" value="" style="sketch=0;pointerEvents=1;shadow=0;dashed=0;html=1;strokeColor=#b85450;fillColor=#f8cecc;aspect=fixed;labelPosition=center;verticalLabelPosition=bottom;verticalAlign=top;align=center;outlineConnect=0;shape=mxgraph.vvd.document;" parent="1" vertex="1">
          <mxGeometry x="600.88" y="6.719999999999999" width="23.25" height="31.85" as="geometry" />
        </mxCell>
        <mxCell id="I-vlI1pOJOIMVIl76UBa-232" value="·····" style="text;spacingTop=-5;align=center;fontSize=15;fontStyle=1" parent="1" vertex="1">
          <mxGeometry x="597.5" y="47.65" width="30" height="20" as="geometry" />
        </mxCell>
        <mxCell id="I-vlI1pOJOIMVIl76UBa-234" value="" style="verticalLabelPosition=bottom;shadow=0;dashed=0;align=center;html=1;verticalAlign=top;shape=mxgraph.electrical.abstract.summation_point;" parent="1" vertex="1">
          <mxGeometry x="646.62" y="18.5" width="23" height="22" as="geometry" />
        </mxCell>
        <mxCell id="I-vlI1pOJOIMVIl76UBa-237" value="" style="verticalLabelPosition=bottom;aspect=fixed;html=1;shape=mxgraph.salesforce.marketing;" parent="1" vertex="1">
          <mxGeometry x="680" y="3.5" width="40.15" height="40.15" as="geometry" />
        </mxCell>
        <mxCell id="I-vlI1pOJOIMVIl76UBa-238" value="" style="verticalLabelPosition=bottom;aspect=fixed;html=1;shape=mxgraph.salesforce.success2;" parent="1" vertex="1">
          <mxGeometry x="639.61" y="152" width="36.23" height="36.23" as="geometry" />
        </mxCell>
        <mxCell id="I-vlI1pOJOIMVIl76UBa-241" value="" style="edgeStyle=none;noEdgeStyle=1;strokeColor=#CC0000;strokeWidth=5;fontSize=16;" parent="1" edge="1">
          <mxGeometry width="100" height="100" relative="1" as="geometry">
            <mxPoint x="627" y="404.5799999999999" as="sourcePoint" />
            <mxPoint x="713" y="405" as="targetPoint" />
          </mxGeometry>
        </mxCell>
        <mxCell id="I-vlI1pOJOIMVIl76UBa-243" value="" style="edgeStyle=none;noEdgeStyle=1;strokeColor=#CC0000;strokeWidth=5;fontSize=16;" parent="1" edge="1">
          <mxGeometry width="100" height="100" relative="1" as="geometry">
            <mxPoint x="823" y="405.62999999999994" as="sourcePoint" />
            <mxPoint x="909" y="406.05" as="targetPoint" />
          </mxGeometry>
        </mxCell>
        <mxCell id="I-vlI1pOJOIMVIl76UBa-244" value="&lt;p style=&quot;margin: 4px 0px 0px; text-align: center; text-decoration: underline; font-size: 16px;&quot;&gt;&lt;strong style=&quot;font-size: 16px;&quot;&gt;&lt;strong style=&quot;font-size: 16px;&quot;&gt;Process&lt;/strong&gt;&amp;nbsp;5&lt;br style=&quot;font-size: 16px;&quot;&gt;&lt;/strong&gt;&lt;/p&gt;&lt;hr style=&quot;font-size: 16px;&quot;&gt;&lt;p style=&quot;margin: 0px 0px 0px 8px; font-size: 16px;&quot;&gt;Store&lt;span style=&quot;background-color: initial; font-size: 16px;&quot;&gt;&amp;nbsp;&lt;/span&gt;&lt;span style=&quot;background-color: initial;&quot;&gt;Query&amp;amp;&lt;/span&gt;&lt;/p&gt;&lt;p style=&quot;margin: 0px 0px 0px 8px; font-size: 16px;&quot;&gt;&lt;span style=&quot;background-color: initial;&quot;&gt;Response&lt;/span&gt;&lt;/p&gt;" style="verticalAlign=middle;align=center;overflow=fill;fontSize=16;fontFamily=Helvetica;html=1;rounded=1;fontStyle=1;strokeWidth=3;fillColor=#fad7ac;strokeColor=#b46504;" parent="1" vertex="1">
          <mxGeometry x="910.25" y="359" width="119.75" height="90" as="geometry" />
        </mxCell>
        <mxCell id="I-vlI1pOJOIMVIl76UBa-246" value="" style="shape=image;verticalLabelPosition=bottom;verticalAlign=top;imageAspect=0;aspect=fixed;image=data:image/png,iVBORw0KGgoAAAANSUhEUgAAAMgAAADICAYAAACtWK6eAAAAAXNSR0IArs4c6QAAD35JREFUeF7tXe2V2zYQFC89OC/VxO4gSQ1J2rDdRuwa4nRguZq8Sw8W83AyLYoCCGCxXwDH/3wiQGB2Z2d3QVHTCf+AABBIIjABGyAABNIIgCDwDiCwgwAIAvcAAiAIfAAI0BCAghTi9vsv/74Ol07TD2/vh8wvf6f9m87rcdM0f1n+/9ffP76jzYlRnAiAIAVo/vnb87t5Pm2IUTCw4ZJpOr0HSRoAZBoKgmSAtCDHsiSQhMnLG6YBQXbAsyTHsqx5vrz5+M9Pd6lYg70xtBIBEGQHsD9+fZ4r8RS5/MOnH2EnEWTzkwL4BEYe1OO2tOn84dOrN3lz4gpuBECQCKK+yHFdIOoRbtcvmw8EieAUS60WB7UkD1KtMqfmvAoE2aCZIsDaOf/49b/Pp1PL+QfVhEi1qMhRx4EgK+RS5NimN+HQcJqePlNBbxmHrlYLevVjQZAVZjFlSOX+dqkWVKTezekjQJBv2JWkVluYrVItFOx0h68dCYJ8Q2yvME+BaplqoWCvdXXa9SDI6XSiqMcCt5WKnE5ItWguXzfq8AQpLcz3YLU6cUfBXufslKsPT5CawjwFMAp2iuv1MebQBGlJrbwU7FARWaIdmiCUwtxfwY5aRJIihyUIp3pYF+xo+8pR5LAE4VSPxTyWbV+kWjIkOSRB4urBk6qgYJdxVKtZD0cQjrZuzlho++YQ6ufzwxFEIrXamttORVod7/4tK+vZ1m9cWf5+uVzuvgo84leDD0UQicI85ZJ2J+ytJOEcfyXcmlwLqXoh06EIoqEeHgp2TheXn2s6BwIF4ngkzWEIoqke1m1feaeWuUNoVweiPD09vfbyTrDDEERTPaAirQTi6Si2ruIlPeSYxPscFupxUxEfrw7ybqPt+rwcfg5PEI22bsr5LA8OeyNEbL0eDj8PSxCNLxz12+71QS8PKjI0QSzVI7iY1YGhD/duXwUI0o7h7gwWhfmyIKhHu3FBkHYMkzNYqgfIwWNY1CA8OEZngXoIgqs0NQgiBLRlWxfqwWdUEIQPy+8zWaZWKMy5DWp/YDhcFyvVOUJbl9t5NeYDQVhRhnqwwuliMus0aygFQWHuwqfZF6Gh/qlFD0MQqAe7X7qa0OpMZAiCWJMDnSsdLlmQZAiCoDDXcVAPd9GuSbonCNTDg9vqrkGzJumaIHupjQaISK10ibHcTTPV6pogqdRKC0A8rWtDkHBXrVRLlCDhC0MLhOF7xls4t6+NScEd+zI/Uis75/RxZ51DRHaCXL9F98Nbm1+BPZ00Uis8UuKDIhq2ZiWIdU6ulVpZ79OHe9qvQiPNYiOIB6fRiCge9mnvmj5WoBEQ2QjSXrCmX3u5NUfqNZgaLx4LKWSsnprn6WcfbuNzFTGblax0r07VsDcLQfaj6u3NeQsgGhsrAR/XAIEcAs0EyaUcGnlibpP4HAhQERAnCH6umGoajPOAQBNBcuqxbBAq4sHUWAMFARWCQEUopsEYDwiQCVKqHlARD2Yecw2hoyjd8CETpP4HYnQeDRjTFbCrGAIhSEv/TAKJILXqARWBg3MjsLwYXPpwmEQQ+qEgVITbUY4635LBuCMIVT0WQ2o8HnBUpznKvtc/KyHdIa1WELp63MwnzfqjOMoR93kfoOUzkiqCtKoHVOSILs2753VzSFo9wsqLCcJFDhTsvA5zpNm2PqiRiZgRBIeHR3Lt9r0+/pydfHpVrCDc6gEVaXeYI80Q+61HjfSqmCAchXncoDpR4EjONOJeHw+l9fwmm2JJqQcK9hFdmX9PlupRpCBy6oG2L787jTejpXpkCSKtHjdz6knmeC407o6s1WOXIHrkuBpYq+ga153G25m1ergiCNq+4zl4y45iAdoiiCaLdI3aYwugBQAtRsRYGQTi2YtNGh4liHZ6tYZZ43RUxqyYlQuB+HeNHBHEQj3Q9uVyr/7niQVoq6fAowpS/21BXqMg1eLFs7fZQJCsxWzkNLssXKCGQCyLsUi/owoS6z+rIfPtRlARbcR93c+Liux0sf77bPUTBldTQUV8uaz+ajyoSJIgHlTEqjBbXCFEsbVbpF9QPT/8OJC+O7Xc0Wcw8qAiuw8rWhfrweQWeefiapbdvBZ3rx1riXFurdYqsksQDypimWpZngflHIfrc++1nrWKZB9396Ailkb0sH8uMjzO4zO12q7TkiRZgkBFnt/N8+mtnJPazew5tdqi8phq6ZA7S5CwUA9R1FJFRky1LPGkhAQrFSkiyNFV5BoknmeKYX2O0Ym+3HuPBWppFSwiSNiohyhq2fb1sH8uh+tNPZZ9xwK1tE8UE8RLqiUdMfaccAwV6VM91mdT65rQFUGOnmqNoCK9qsc6cGm+QK5KQbyoiKWR+1aRvtVjTRKtF1hXEwQq0m/b1zKwcNVP63mWYCWZZlUTxEvBbmnsPlOtcdTj8VGg6Rz+Nk3zF+5fnCIRxEfb087gPRLEMqBIqEcqUHM3ccgE8ZBqWRq9L5LYBRMpcjyqyPUv3OkWmSA+CnZbw/dSsFsGEmmCPAYqXp9oIogHFeGOGDUG7UFFLPGpwZJ6rfQjKE0E8aEitm9l9K4i3Dk51ZElx8VIwrXvZoKgYPfb9rVOrYLjcneVUkTbBiou5WQhiIdUw9IZPDzt/Og4vLl4rQIsPsHlqLn7S72qlIUgPlItO4fwECC2DmQZMLZZhdZatnbguC8bQTwU7ByA5CJV6nNfJLELFvHzCb31rFMtDn9gI8jRVcRHLXalL4djUANFKlBqrek+UE3nef76/uM/P72ctFP+sRLEg4po5bwxsD2oiOX+4+qxIKWpIvfvdGvBhJUg+wBR+EsboxWtYquzbfvqOSElQGjaZWsHatuXnSBHT7UsVUTTAWnBQY/A22yGqiIiBPGQalk6iw1J9JyPoh7LGE273LffafiIEAQqon94qOl4NPXQr0W2gYqiImIE8aAiFEBoVc/jKE0Vsdwnpe7UJHPr2YgYQXyoyDHe7UstQDmCATUQaK259fvrogSBisinWprRuKX22I7VVL0bSerrEFGCUOSXI6pt57B0Itm2b73BOfGlqod2wd7yXJg4Qa6plvVbCe0cqdWJ9hzakvg8KbSdXUoDhQpBJJ2kdKOWziSzf1vn4tqTpl2WlL8mvVMhCE+0KaVC6jo7h5KoxTQdq62tm7ebVsFOeZeWGkEknCQP/f0VNZGjdu7c9VwRN9zHch8SdaXmfm6Hh2UBU40gPlRkhLZvmWFzhKV+zkn09Rq0FPE+UOef9lUliAcV6f0n3bQcKUUguYaLHvHXe8iplypBvKiIpZO1OZieE3GeeZSqVc5ZS+fJXbd+RitX/6gTBCpCPzy0JLZWu15jjzcfzAccdYJARag/RpQ3Zi5ytnwuVXs8rklmn4EU63tN09PnkoaHOkF8KMgLNOcPn169aXEa6liKs2lE1tR+KOulYmMxbi/NUieIJ7C1ct7WfN5ynVqplQUxrvfcD5SqBPFEjsUglpG5rGC3UzqJMw87IsTvnAs+qgQpcwhtCO0csCRgWBJ4dPXIkeNFX7TcscQZtNayvY+lE+4HDTvyjqwegRiXy+Vc8jogNYL4VI+FKnaOuBc4LIk7snrU4KpCEM/q4bcWsSPtyOoR9uaOIL7Vw6eK1BhRIjXtw2a0nedOz9eziitID+rxnSLT6b3W6/q3pt2+MtPqjGZ09Qj7c0WQ3iKRZeResLJcw8i1x0tXqjIIiipIT+pxi+h2uX/AK6zDSsWgHo8pmxhB+iTHFSDrCE7LrNtH9Wyzkt3XqofoOUjfYNupSImhpa7pLR2uxaGm9vhel9bepOT6vslxTBUZwWZ7vklRDzEFGSMSHUtFxrBZnCJUcogQZKRI1AJsidJ6uWYkm8UwpaRWYinWaJFo9IJ9dHK0BjnWLtaYYI+dao0W0LYK0qIe7CnWqGCPqiJjBrTViVbloWAsPWNTkD7Anop+7XSa5i9rsEofjfZSU5Ssow97lewkfQ1HYGMhiA+wp3Nw7ODMC2Qlz/u3maDf0T5sJotfa3rFlmLZvYgh/2Y8WRP0OfsRyNFanLN3se5/MFHDccYuniURHLVW/O7UDLUHO0G0VYQjv5R0Qq9zj68evIGTpQZZnEELfC759OrEkusaWz14ycFWg6wNqmEAEIRGIa0ARlsdZdStKznPX99LNGVYFSRsUcMIHN0Jijl6H6MRvPYw6jGwsRMkACRZsPcIsgdiaQSu0cghkmKFSSULdqgHjW7W6tGr3UQUREpFoB40ckA9aLiJKYiMivB3KOiw9TNSUs1LUehVPUQJwq0iUI9Sd7y/DupBw20ZJZZicaoIyEEzMshBw209SpQgXG3fniW63UT0GawL8xECmzhBrqnW80w18wggU/feMg7q0YLebawKQVqMBfWgGbolKNHueD9qFLupEIRasEM9aK7aEpBod7wfNZLd1AhS224cCWQOpyudw5ocYZ2jqId4m3dr1JpHUEYCudS5Oa6zTq1GC2xqClLT9h0NZA7HL5nDWj1GtJsqQUrbvlCPEjo8XgP1oOG2N0qdILmCfcQoxG+2xxmhHjIomxBkr2BffoE0tV2JL8XIQKs3a20DRGJlo6q+CUFKUy0JQ+rOqfOAJdRDzqpmBMmlWnJb1p1Z+uUS1uQYra279Q5TgnhIDeTpIqsiKMxlLWhKkJrWrywMsrNLNR6gHrJ2C7ObE2TZYjD2drvzPP28D8H8Wh4injtIFLFQDx7buGvzym/L7g6ptJFbRazVg3s/dhbbv7MbBfEKEGVdqUdquAp2a3KMXpivbQ6CUBhQMCae/vAU7DXPtBUstfqSo6iHqxqk2krOB6SifKuKQD10DQ8FEcQ7HunbVASFuaDBIlODIIJ4pwp2qopAPQSNlZgaBBHGnFNFoB7CxoKC6APMpSLW6nGkwhxdLGWexJ27vBaxJsdLN4fxV5uU4W+6HVKsJvjKB8fSo1KnQ1u3HGfuK0EQbkQT86VUIPcIigf1yK1RCUKT24AgirDHlCCnIijMFQ2EIt0W7NqCHephay+cpBvgX9r29fBdmZy6GcCnfkukWMqQl6qIdWF+OpV32ZQhVL0dCKIK9/Vmuad9PaRWUI+rrUAQA4J4SJ/2tg1y3NABQQwIsqciRsu5u+2R27pb/EEQI4/0qiJQj3uHAEGMCBJu66HWWG8f5Hh0BhDEkCC+SIKuVcwVQBBjguiRZDrfq8X8Jfz/crm8/B2vdI07AgjigCDrJYTapHVJcPZWBNHF4kMQMw2NABRkaPNic60IgCCtCGL80AiAIEObF5trRQAEaUUQ44dG4H/cjpxu5SIGQQAAAABJRU5ErkJggg==" parent="1" vertex="1">
          <mxGeometry x="640" y="87.81" width="36.23" height="36.23" as="geometry" />
        </mxCell>
        <mxCell id="I-vlI1pOJOIMVIl76UBa-249" value="" style="edgeStyle=elbowEdgeStyle;elbow=horizontal;strokeColor=#990000;strokeWidth=2;startArrow=classic;startFill=1;endArrow=none;endFill=0;" parent="1" edge="1">
          <mxGeometry width="100" height="100" relative="1" as="geometry">
            <mxPoint x="655.84" y="81.81" as="sourcePoint" />
            <mxPoint x="655" y="56" as="targetPoint" />
            <Array as="points">
              <mxPoint x="655" y="37.81" />
              <mxPoint x="655.84" y="61.81" />
              <mxPoint x="753.84" y="44.81" />
            </Array>
          </mxGeometry>
        </mxCell>
        <mxCell id="I-vlI1pOJOIMVIl76UBa-250" value="" style="edgeStyle=elbowEdgeStyle;elbow=horizontal;strokeColor=#990000;strokeWidth=2;startArrow=classic;startFill=1;endArrow=none;endFill=0;" parent="1" edge="1">
          <mxGeometry width="100" height="100" relative="1" as="geometry">
            <mxPoint x="656.15" y="149.85" as="sourcePoint" />
            <mxPoint x="655.31" y="124.03999999999999" as="targetPoint" />
            <Array as="points">
              <mxPoint x="655.31" y="105.85" />
              <mxPoint x="656.15" y="129.85" />
              <mxPoint x="754.15" y="112.85" />
            </Array>
          </mxGeometry>
        </mxCell>
        <mxCell id="I-vlI1pOJOIMVIl76UBa-251" value="" style="shape=flexArrow;endArrow=classic;html=1;rounded=0;fillColor=#ffcccc;strokeWidth=2;strokeColor=#990000;endWidth=11.11111111111111;endSize=7.940740740740741;" parent="1" edge="1">
          <mxGeometry width="50" height="50" relative="1" as="geometry">
            <mxPoint x="573" y="200" as="sourcePoint" />
            <mxPoint x="573" y="236" as="targetPoint" />
          </mxGeometry>
        </mxCell>
        <mxCell id="ITVhtlflYJVLFZy4s-Fa-92" value="&lt;p style=&quot;margin: 4px 0px 0px; text-align: center; text-decoration: underline; font-size: 16px;&quot;&gt;&lt;strong style=&quot;font-size: 16px;&quot;&gt;&lt;strong style=&quot;font-size: 16px;&quot;&gt;Process&lt;/strong&gt;&amp;nbsp;1&lt;br style=&quot;font-size: 16px;&quot;&gt;&lt;/strong&gt;&lt;/p&gt;&lt;hr style=&quot;font-size: 16px;&quot;&gt;&lt;p style=&quot;margin: 0px 0px 0px 8px; font-size: 16px;&quot;&gt;&lt;span style=&quot;text-wrap: wrap; font-size: 16px;&quot;&gt;Retrieval&lt;/span&gt;&lt;/p&gt;&lt;p style=&quot;margin: 0px 0px 0px 8px; font-size: 16px;&quot;&gt;&lt;span style=&quot;text-wrap: wrap; font-size: 16px;&quot;&gt;documents&lt;/span&gt;&lt;/p&gt;" style="verticalAlign=middle;align=center;overflow=fill;fontSize=16;fontFamily=Helvetica;html=1;rounded=1;fontStyle=1;strokeWidth=3;fillColor=#fad7ac;strokeColor=#b46504;" parent="1" vertex="1">
          <mxGeometry x="-10.000000000000085" y="359" width="110" height="90" as="geometry" />
        </mxCell>
        <mxCell id="ITVhtlflYJVLFZy4s-Fa-94" value="" style="edgeStyle=none;noEdgeStyle=1;strokeColor=#CC0000;strokeWidth=5;entryX=0;entryY=0.5;entryDx=0;entryDy=0;exitX=1;exitY=0.5;exitDx=0;exitDy=0;fontSize=16;" parent="1" source="ITVhtlflYJVLFZy4s-Fa-92" target="I-vlI1pOJOIMVIl76UBa-151" edge="1">
          <mxGeometry width="100" height="100" relative="1" as="geometry">
            <mxPoint x="-60" y="420" as="sourcePoint" />
            <mxPoint x="-2" y="421" as="targetPoint" />
          </mxGeometry>
        </mxCell>
        <mxCell id="ITVhtlflYJVLFZy4s-Fa-95" value="" style="edgeStyle=none;noEdgeStyle=1;strokeColor=#990000;strokeWidth=2;entryX=0.5;entryY=0;entryDx=0;entryDy=0;exitX=0.5;exitY=1;exitDx=0;exitDy=0;" parent="1" source="ITVhtlflYJVLFZy4s-Fa-92" target="10" edge="1">
          <mxGeometry width="100" height="100" relative="1" as="geometry">
            <mxPoint x="110" y="414" as="sourcePoint" />
            <mxPoint x="198" y="414" as="targetPoint" />
          </mxGeometry>
        </mxCell>
        <mxCell id="ITVhtlflYJVLFZy4s-Fa-96" value="" style="edgeStyle=elbowEdgeStyle;elbow=horizontal;strokeColor=#990000;strokeWidth=2;startArrow=classic;startFill=1;endArrow=none;endFill=0;" parent="1" edge="1">
          <mxGeometry width="100" height="100" relative="1" as="geometry">
            <mxPoint x="238.75" y="313" as="sourcePoint" />
            <mxPoint x="238.75" y="359" as="targetPoint" />
            <Array as="points">
              <mxPoint x="238.25" y="269" />
              <mxPoint x="241.25" y="446" />
            </Array>
          </mxGeometry>
        </mxCell>
        <mxCell id="ITVhtlflYJVLFZy4s-Fa-99" value="&lt;b style=&quot;font-size: 16px;&quot;&gt;End&lt;/b&gt;" style="strokeWidth=3;html=1;shape=mxgraph.flowchart.terminator;whiteSpace=wrap;fillColor=#FFFFD1;fontSize=16;" parent="1" vertex="1">
          <mxGeometry x="1080" y="374" width="100" height="60" as="geometry" />
        </mxCell>
        <mxCell id="ITVhtlflYJVLFZy4s-Fa-100" value="" style="edgeStyle=none;noEdgeStyle=1;strokeColor=#CC0000;strokeWidth=5;exitX=1;exitY=0.5;exitDx=0;exitDy=0;entryX=0;entryY=0.5;entryDx=0;entryDy=0;entryPerimeter=0;fontSize=16;" parent="1" source="I-vlI1pOJOIMVIl76UBa-244" target="ITVhtlflYJVLFZy4s-Fa-99" edge="1">
          <mxGeometry width="100" height="100" relative="1" as="geometry">
            <mxPoint x="833" y="419.62999999999994" as="sourcePoint" />
            <mxPoint x="919" y="420.05" as="targetPoint" />
          </mxGeometry>
        </mxCell>
        <mxCell id="ITVhtlflYJVLFZy4s-Fa-103" value="" style="shape=flexArrow;endArrow=classic;html=1;rounded=0;fillColor=#ffcccc;strokeWidth=2;strokeColor=#990000;endWidth=11.11111111111111;endSize=7.940740740740741;" parent="1" edge="1">
          <mxGeometry width="50" height="50" relative="1" as="geometry">
            <mxPoint x="245.25" y="204" as="sourcePoint" />
            <mxPoint x="245.25" y="240" as="targetPoint" />
          </mxGeometry>
        </mxCell>
        <mxCell id="ITVhtlflYJVLFZy4s-Fa-104" value="Prompt engineering" style="text;html=1;align=center;verticalAlign=middle;whiteSpace=wrap;rounded=0;fontStyle=1" parent="1" vertex="1">
          <mxGeometry x="90.81" y="-50" width="328.88" height="30" as="geometry" />
        </mxCell>
        <mxCell id="NWvB8G0F85589qx8JD1G-91" value="&lt;span style=&quot;font-weight: 700;&quot;&gt;Query&lt;/span&gt;" style="strokeWidth=3;html=1;shape=mxgraph.flowchart.terminator;whiteSpace=wrap;fillColor=#FFFFD1;fontSize=16;" vertex="1" parent="1">
          <mxGeometry x="-170" y="374" width="100" height="60" as="geometry" />
        </mxCell>
      </root>
    </mxGraphModel>
  </diagram>
</mxfile>
